<svg width="44" height="44" viewBox="0 0 44 44" fill="none" xmlns="http://www.w3.org/2000/svg">
<path fill-rule="evenodd" clip-rule="evenodd" d="M22.7362 39.5979C32.4553 39.5979 40.3342 31.719 40.3342 21.9999C40.3342 19.6425 39.8706 17.3933 39.0297 15.3385C38.4169 13.8412 37.6037 12.4472 36.6235 11.1897C36.2808 10.7501 35.6334 10.7304 35.2393 11.1246L8.82442 37.5394C8.06481 38.299 8.6028 39.5979 9.67705 39.5979H22.7362ZM22.4624 33.0445C28.5621 33.0445 33.507 28.0997 33.507 21.9999C33.507 21.6335 33.4891 21.2713 33.4543 20.914L21.3238 33.0445H22.4624Z" fill="#7B51EA"/>
<path fill-rule="evenodd" clip-rule="evenodd" d="M3.66754 33.853C3.66754 34.9272 4.96635 35.4652 5.72597 34.7056L32.0294 8.40215C32.4531 7.97849 32.3927 7.27355 31.8811 6.96176C30.3822 6.04833 28.736 5.35269 26.9865 4.9188C25.6254 4.58123 24.2017 4.4021 22.7363 4.4021H4.87334C4.2074 4.4021 3.66754 4.94195 3.66754 5.6079V33.853ZM20.9498 10.9555H10.4948V21.4105L20.9498 10.9555Z" fill="#7B51EA"/>
</svg>
