<svg width="18" height="18" viewBox="0 0 18 18" fill="none" xmlns="http://www.w3.org/2000/svg">
<path d="M4.81039 6.75H13.1894C13.3377 6.75003 13.4827 6.79404 13.606 6.87645C13.7293 6.95886 13.8254 7.07598 13.8821 7.21301C13.9389 7.35003 13.9538 7.50081 13.9248 7.64627C13.8959 7.79174 13.8245 7.92536 13.7196 8.03025L9.53014 12.2197C9.38949 12.3603 9.19876 12.4393 8.99989 12.4393C8.80101 12.4393 8.61028 12.3603 8.46964 12.2197L4.28014 8.03025C4.17528 7.92536 4.10388 7.79174 4.07495 7.64627C4.04602 7.50081 4.06088 7.35003 4.11763 7.21301C4.17438 7.07598 4.27049 6.95886 4.39379 6.87645C4.5171 6.79404 4.66207 6.75003 4.81039 6.75Z" fill="white"/>
</svg>
