<svg width="18" height="18" viewBox="0 0 18 18" fill="none" xmlns="http://www.w3.org/2000/svg">
<path d="M6.75 13.1896L6.75 4.81061C6.75003 4.6623 6.79404 4.51733 6.87645 4.39402C6.95886 4.27071 7.07598 4.17461 7.21301 4.11786C7.35003 4.0611 7.50081 4.04625 7.64627 4.07518C7.79174 4.1041 7.92536 4.17551 8.03025 4.28036L12.2197 8.46986C12.3603 8.61051 12.4393 8.80124 12.4393 9.00011C12.4393 9.19899 12.3603 9.38972 12.2197 9.53036L8.03025 13.7199C7.92536 13.8247 7.79174 13.8961 7.64627 13.9251C7.50081 13.954 7.35003 13.9391 7.21301 13.8824C7.07598 13.8256 6.95886 13.7295 6.87645 13.6062C6.79404 13.4829 6.75003 13.3379 6.75 13.1896Z" fill="white"/>
</svg>
