<svg width="16" height="17" viewBox="0 0 16 17" fill="none" xmlns="http://www.w3.org/2000/svg">
<path d="M12.6667 7.83334H3.33333C2.59695 7.83334 2 8.4303 2 9.16668V13.8333C2 14.5697 2.59695 15.1667 3.33333 15.1667H12.6667C13.403 15.1667 14 14.5697 14 13.8333V9.16668C14 8.4303 13.403 7.83334 12.6667 7.83334Z" stroke="#2A2A2A" stroke-width="1.33333" stroke-linecap="round" stroke-linejoin="round"/>
<path d="M4.66675 7.83334V5.16668C4.66675 4.28262 5.01794 3.43478 5.64306 2.80965C6.26818 2.18453 7.11603 1.83334 8.00008 1.83334C8.88414 1.83334 9.73198 2.18453 10.3571 2.80965C10.9822 3.43478 11.3334 4.28262 11.3334 5.16668V7.83334" stroke="#2A2A2A" stroke-width="1.33333" stroke-linecap="round" stroke-linejoin="round"/>
</svg>
