<svg width="24" height="24" viewBox="0 0 24 24" fill="none" xmlns="http://www.w3.org/2000/svg">
<path d="M20.25 4.5H3.75C3.33579 4.5 3 4.83579 3 5.25V18.75C3 19.1642 3.33579 19.5 3.75 19.5H20.25C20.6642 19.5 21 19.1642 21 18.75V5.25C21 4.83579 20.6642 4.5 20.25 4.5Z" stroke="#7E7E7E" stroke-width="2" stroke-linecap="round" stroke-linejoin="round"/>
<path d="M15.6875 9.375C15.6875 9.9618 15.2118 10.4375 14.625 10.4375C14.0382 10.4375 13.5625 9.9618 13.5625 9.375C13.5625 8.7882 14.0382 8.3125 14.625 8.3125C15.2118 8.3125 15.6875 8.7882 15.6875 9.375Z" fill="#7E7E7E" stroke="#7E7E7E" stroke-width="0.125"/>
<path d="M13.8103 15.375L16.2187 12.9694C16.3594 12.8288 16.5501 12.7499 16.7489 12.7499C16.9477 12.7499 17.1384 12.8288 17.2791 12.9694L21 16.6931" stroke="#7E7E7E" stroke-width="2" stroke-linecap="round" stroke-linejoin="round"/>
<path d="M3 15.8147L8.09437 10.7194C8.16403 10.6496 8.24675 10.5943 8.33779 10.5566C8.42884 10.5188 8.52644 10.4994 8.625 10.4994C8.72356 10.4994 8.82116 10.5188 8.91221 10.5566C9.00325 10.5943 9.08597 10.6496 9.15563 10.7194L17.9353 19.5" stroke="#7E7E7E" stroke-width="2" stroke-linecap="round" stroke-linejoin="round"/>
</svg>
