<svg width="78" height="78" viewBox="0 0 78 78" fill="none" xmlns="http://www.w3.org/2000/svg">
<rect width="78" height="78" rx="39" fill="white"/>
<path d="M48.9531 22.4355C60.229 28.9456 65.8669 32.2007 66.8178 36.8584C67.1024 38.2526 67.1024 39.6898 66.8178 41.084C65.8669 45.7417 60.229 48.9967 48.9531 55.5069C37.6773 62.017 32.0393 65.272 27.5302 63.7667C26.1805 63.3161 24.9358 62.5974 23.8708 61.6539C20.3125 58.5015 20.3125 51.9914 20.3125 38.9712C20.3125 25.951 20.3125 19.4408 23.8708 16.2885C24.9358 15.3449 26.1805 14.6263 27.5302 14.1757C32.0393 12.6703 37.6773 15.9254 48.9531 22.4355Z" fill="#6B02FF"/>
</svg>
