<svg
  width="16"
  height="13"
  viewBox="0 0 16 13"
  fill="none"
  xmlns="http://www.w3.org/2000/svg"
>
<path
    fill-rule="evenodd"
    clip-rule="evenodd"
    d="M15.5 8.86364C15.5 10.7464 13.9737 12.2727 12.0909 12.2727H3.90909C2.0263 12.2727 0.5 10.7464 0.5 8.86364V3.40909C0.5 1.5263 2.0263 0 3.90909 0H12.0909C13.9737 0 15.5 1.5263 15.5 3.40909V8.86364ZM3.90909 1.22045H12.0909C13.2997 1.22045 14.2795 2.20034 14.2795 3.40909V4.09091H12.0909C10.9612 4.09091 10.0455 5.00669 10.0455 6.13636C10.0455 7.26604 10.9612 8.18182 12.0909 8.18182H14.2795V8.86364C14.2795 10.0724 13.2997 11.0523 12.0909 11.0523H3.90909C2.70034 11.0523 1.72045 10.0724 1.72045 8.86364V3.40909C1.72045 2.20034 2.70034 1.22045 3.90909 1.22045ZM14.2795 6.96136V5.31136H12.0909C11.6353 5.31136 11.2659 5.68073 11.2659 6.13636C11.2659 6.592 11.6353 6.96136 12.0909 6.96136H14.2795Z"
    fill="white"
  />
</svg>
