<svg width="18" height="19" viewBox="0 0 18 19" fill="none" xmlns="http://www.w3.org/2000/svg">
<path d="M15 7.25H8.25C7.42157 7.25 6.75 7.92157 6.75 8.75V15.5C6.75 16.3284 7.42157 17 8.25 17H15C15.8284 17 16.5 16.3284 16.5 15.5V8.75C16.5 7.92157 15.8284 7.25 15 7.25Z" stroke="white" stroke-width="2" stroke-linecap="round" stroke-linejoin="round"/>
<path d="M3.75 11.75H3C2.60218 11.75 2.22064 11.592 1.93934 11.3107C1.65804 11.0294 1.5 10.6478 1.5 10.25V3.5C1.5 3.10218 1.65804 2.72064 1.93934 2.43934C2.22064 2.15804 2.60218 2 3 2H9.75C10.1478 2 10.5294 2.15804 10.8107 2.43934C11.092 2.72064 11.25 3.10218 11.25 3.5V4.25" stroke="white" stroke-width="2" stroke-linecap="round" stroke-linejoin="round"/>
</svg>
