<svg width="19" height="18" viewBox="0 0 19 18" fill="none" xmlns="http://www.w3.org/2000/svg">
<path d="M17 2.25H12.5C11.7044 2.25 10.9413 2.56607 10.3787 3.12868C9.81607 3.69129 9.5 4.45435 9.5 5.25V15.75C9.5 15.1533 9.73705 14.581 10.159 14.159C10.581 13.7371 11.1533 13.5 11.75 13.5H17V2.25Z" stroke="#7B51EA" stroke-width="1.5" stroke-linecap="round" stroke-linejoin="round"/>
<path d="M2 2.25H6.5C7.29565 2.25 8.05871 2.56607 8.62132 3.12868C9.18393 3.69129 9.5 4.45435 9.5 5.25V15.75C9.5 15.1533 9.26295 14.581 8.84099 14.159C8.41903 13.7371 7.84674 13.5 7.25 13.5H2V2.25Z" stroke="#7B51EA" stroke-width="1.5" stroke-linecap="round" stroke-linejoin="round"/>
</svg>
