<svg width="18" height="19" viewBox="0 0 18 19" fill="none" xmlns="http://www.w3.org/2000/svg">
<path d="M12.75 2.75023C12.947 2.55324 13.1808 2.39699 13.4382 2.29038C13.6956 2.18378 13.9714 2.12891 14.25 2.12891C14.5286 2.12891 14.8044 2.18378 15.0618 2.29038C15.3192 2.39699 15.553 2.55324 15.75 2.75023C15.947 2.94721 16.1032 3.18106 16.2098 3.43843C16.3165 3.6958 16.3713 3.97165 16.3713 4.25023C16.3713 4.5288 16.3165 4.80465 16.2098 5.06202C16.1032 5.31939 15.947 5.55324 15.75 5.75023L5.625 15.8752L1.5 17.0002L2.625 12.8752L12.75 2.75023Z" stroke="white" stroke-width="2" stroke-linecap="round" stroke-linejoin="round"/>
</svg>
