<svg width="44" height="44" viewBox="0 0 44 44" fill="none" xmlns="http://www.w3.org/2000/svg">
<path fill-rule="evenodd" clip-rule="evenodd" d="M22.7362 39.5977C32.4553 39.5977 40.3342 31.7189 40.3342 21.9998C40.3342 19.6423 39.8706 17.3932 39.0297 15.3384C38.4169 13.8411 37.6037 12.447 36.6235 11.1896C36.2808 10.7499 35.6334 10.7303 35.2393 11.1245L8.82442 37.5393C8.06481 38.2989 8.6028 39.5977 9.67705 39.5977H22.7362ZM22.4624 33.0444C28.5621 33.0444 33.507 28.0995 33.507 21.9998C33.507 21.6334 33.4891 21.2711 33.4543 20.9139L21.3238 33.0444H22.4624Z" fill="#7B51EA"/>
<path fill-rule="evenodd" clip-rule="evenodd" d="M3.66754 33.8532C3.66754 34.9275 4.96635 35.4655 5.72597 34.7059L32.0294 8.40239C32.4531 7.97873 32.3927 7.27379 31.8811 6.962C30.3822 6.04858 28.736 5.35294 26.9865 4.91905C25.6254 4.58148 24.2017 4.40234 22.7363 4.40234H4.87334C4.2074 4.40234 3.66754 4.9422 3.66754 5.60814V33.8532ZM20.9498 10.9557H10.4948V21.4108L20.9498 10.9557Z" fill="#7B51EA"/>
</svg>
