<svg width="18" height="16" viewBox="0 0 18 16" fill="none" xmlns="http://www.w3.org/2000/svg">
<g clip-path="url(#clip0_377_423)">
<path fill-rule="evenodd" clip-rule="evenodd" d="M3.33024 0.535386L0.173835 7.16541C0.161824 7.19007 0.158018 7.21793 0.162973 7.2449C0.167928 7.27188 0.181385 7.29657 0.201375 7.31535L8.72606 15.484C8.75027 15.5073 8.78252 15.5202 8.81607 15.5202C8.84962 15.5202 8.88187 15.5073 8.90609 15.484L17.4308 7.31586C17.4508 7.29708 17.4642 7.27239 17.4692 7.24541C17.4741 7.21844 17.4703 7.19058 17.4583 7.16592L14.3019 0.535896C14.2917 0.513629 14.2753 0.494767 14.2547 0.481563C14.2341 0.468359 14.2101 0.461371 14.1856 0.461436H3.44754C3.42293 0.46113 3.39877 0.467949 3.37795 0.48107C3.35714 0.494192 3.34057 0.513056 3.33024 0.535386Z" fill="#50AF95"/>
<path fill-rule="evenodd" clip-rule="evenodd" d="M9.91125 7.84627C9.85005 7.85086 9.53385 7.86973 8.82852 7.86973C8.26751 7.86973 7.8692 7.8529 7.72946 7.84627C5.56145 7.7509 3.94321 7.3735 3.94321 6.92164C3.94321 6.46978 5.56145 6.09288 7.72946 5.99598V7.4704C7.87124 7.4806 8.2772 7.50457 8.8382 7.50457C9.51141 7.50457 9.84852 7.47652 9.90921 7.47091V5.997C12.0726 6.09339 13.6873 6.4708 13.6873 6.92164C13.6873 7.37248 12.0731 7.74988 9.90921 7.84576L9.91125 7.84627ZM9.91125 5.84451V4.52514H12.9305V2.51318H4.71026V4.52514H7.72895V5.844C5.27534 5.95671 3.43015 6.44275 3.43015 7.02517C3.43015 7.60759 5.27534 8.09311 7.72895 8.20633V12.4342H9.91074V8.2048C12.3587 8.09209 14.2009 7.60657 14.2009 7.02466C14.2009 6.44275 12.3603 5.95722 9.91074 5.844L9.91125 5.84451Z" fill="white"/>
</g>
<defs>
<clipPath id="clip0_377_423">
<rect width="17.8824" height="16" fill="white"/>
</clipPath>
</defs>
</svg>
